<svg width="151" height="58" viewBox="0 0 151 58" fill="none" xmlns="http://www.w3.org/2000/svg">
<g filter="url(#filter0_d_2237_203)">
<path d="M26.1531 23.14C25.1798 23.14 24.2998 22.9733 23.5131 22.64C22.7398 22.3067 22.1265 21.8267 21.6731 21.2C21.2198 20.5733 20.9865 19.8333 20.9731 18.98H23.9731C24.0131 19.5533 24.2131 20.0067 24.5731 20.34C24.9465 20.6733 25.4531 20.84 26.0931 20.84C26.7465 20.84 27.2598 20.6867 27.6331 20.38C28.0065 20.06 28.1931 19.6467 28.1931 19.14C28.1931 18.7267 28.0665 18.3867 27.8131 18.12C27.5598 17.8533 27.2398 17.6467 26.8531 17.5C26.4798 17.34 25.9598 17.1667 25.2931 16.98C24.3865 16.7133 23.6465 16.4533 23.0731 16.2C22.5131 15.9333 22.0265 15.54 21.6131 15.02C21.2131 14.4867 21.0131 13.78 21.0131 12.9C21.0131 12.0733 21.2198 11.3533 21.6331 10.74C22.0465 10.1267 22.6265 9.66 23.3731 9.34C24.1198 9.00667 24.9731 8.84 25.9331 8.84C27.3731 8.84 28.5398 9.19333 29.4331 9.9C30.3398 10.5933 30.8398 11.5667 30.9331 12.82H27.8531C27.8265 12.34 27.6198 11.9467 27.2331 11.64C26.8598 11.32 26.3598 11.16 25.7331 11.16C25.1865 11.16 24.7465 11.3 24.4131 11.58C24.0931 11.86 23.9331 12.2667 23.9331 12.8C23.9331 13.1733 24.0531 13.4867 24.2931 13.74C24.5465 13.98 24.8531 14.18 25.2131 14.34C25.5865 14.4867 26.1065 14.66 26.7731 14.86C27.6798 15.1267 28.4198 15.3933 28.9931 15.66C29.5665 15.9267 30.0598 16.3267 30.4731 16.86C30.8865 17.3933 31.0931 18.0933 31.0931 18.96C31.0931 19.7067 30.8998 20.4 30.5131 21.04C30.1265 21.68 29.5598 22.1933 28.8131 22.58C28.0665 22.9533 27.1798 23.14 26.1531 23.14ZM52.1806 9.04L48.2806 23H44.9806L42.3606 13.06L39.6206 23L36.3406 23.02L32.5806 9.04H35.5806L38.0406 19.88L40.8806 9.04H44.0006L46.6806 19.82L49.1606 9.04H52.1806ZM62.5689 20.34H57.0089L56.0889 23H53.1489L58.1689 9.02H61.4289L66.4489 23H63.4889L62.5689 20.34ZM61.8089 18.1L59.7889 12.26L57.7689 18.1H61.8089ZM73.1453 23.14C72.172 23.14 71.292 22.9733 70.5053 22.64C69.732 22.3067 69.1186 21.8267 68.6653 21.2C68.212 20.5733 67.9786 19.8333 67.9653 18.98H70.9653C71.0053 19.5533 71.2053 20.0067 71.5653 20.34C71.9386 20.6733 72.4453 20.84 73.0853 20.84C73.7386 20.84 74.252 20.6867 74.6253 20.38C74.9986 20.06 75.1853 19.6467 75.1853 19.14C75.1853 18.7267 75.0586 18.3867 74.8053 18.12C74.552 17.8533 74.232 17.6467 73.8453 17.5C73.472 17.34 72.952 17.1667 72.2853 16.98C71.3786 16.7133 70.6386 16.4533 70.0653 16.2C69.5053 15.9333 69.0186 15.54 68.6053 15.02C68.2053 14.4867 68.0053 13.78 68.0053 12.9C68.0053 12.0733 68.212 11.3533 68.6253 10.74C69.0386 10.1267 69.6186 9.66 70.3653 9.34C71.112 9.00667 71.9653 8.84 72.9253 8.84C74.3653 8.84 75.532 9.19333 76.4253 9.9C77.332 10.5933 77.832 11.5667 77.9253 12.82H74.8453C74.8186 12.34 74.612 11.9467 74.2253 11.64C73.852 11.32 73.352 11.16 72.7253 11.16C72.1786 11.16 71.7386 11.3 71.4053 11.58C71.0853 11.86 70.9253 12.2667 70.9253 12.8C70.9253 13.1733 71.0453 13.4867 71.2853 13.74C71.5386 13.98 71.8453 14.18 72.2053 14.34C72.5786 14.4867 73.0986 14.66 73.7653 14.86C74.672 15.1267 75.412 15.3933 75.9853 15.66C76.5586 15.9267 77.052 16.3267 77.4653 16.86C77.8786 17.3933 78.0853 18.0933 78.0853 18.96C78.0853 19.7067 77.892 20.4 77.5053 21.04C77.1186 21.68 76.552 22.1933 75.8053 22.58C75.0586 22.9533 74.172 23.14 73.1453 23.14ZM90.0128 9.04V11.3H86.2928V23H83.4928V11.3H79.7728V9.04H90.0128ZM103.636 9.04V23H100.836V17.06H94.8558V23H92.0558V9.04H94.8558V14.78H100.836V9.04H103.636ZM117.492 9.04L112.772 18.14V23H109.972V18.14L105.232 9.04H108.392L111.392 15.42L114.372 9.04H117.492ZM127.667 20.34H122.107L121.187 23H118.247L123.267 9.02H126.527L131.547 23H128.587L127.667 20.34ZM126.907 18.1L124.887 12.26L122.867 18.1H126.907Z" fill="#2D9CDB"/>
</g>
<path d="M132.999 30.1977C131.269 26.2777 127.239 25.9677 125.359 27.6377C123.829 28.9677 123.099 32.2977 124.489 35.3277C126.899 40.5377 132.999 43.3277 132.999 43.3277C132.999 43.3277 139.099 40.5877 141.509 35.3777C142.899 32.3777 142.169 29.0577 140.639 27.6877C138.759 25.9677 134.729 26.2777 132.999 30.1977Z" stroke="#27AE60" stroke-width="1.5" stroke-linecap="round" stroke-linejoin="round"/>
<path d="M124.336 34.9688H128.996L131.996 37.9688L134.996 31.9688L136.996 34.9688H141.656" stroke="#27AE60" stroke-width="1.5" stroke-linecap="round" stroke-linejoin="round"/>
<path d="M132.5 37.5L127.5 49.5M137.5 35L144 49.5" stroke="#27AE60" stroke-width="2"/>
<path d="M130.5 44H141" stroke="#27AE60" stroke-width="2"/>
<path d="M14.4904 13.246L14.4959 13.243C13.7618 13.5745 12.9352 13.6402 12.1579 13.429C11.3537 13.2147 10.6533 12.7186 10.1844 12.031C10.1939 12.045 10.2014 12.06 10.2114 12.074L9.50194 12L9.39544 12.651C9.90199 13.3693 10.6099 13.9215 11.4299 14.238L11.3879 14.3935C11.1839 15.154 11.2504 16.0415 11.3209 16.9815C11.4129 18.2065 11.5084 19.4735 10.9884 20.448C10.4994 21.3625 9.52794 21.9075 8.38594 21.9075H8.36994C7.30544 21.9025 6.33844 21.4175 5.96344 20.7C5.69444 20.185 5.66494 19.4845 5.63344 18.744C5.58294 17.5475 5.52644 16.192 4.49944 15.0225L2.52494 12.772L1.77344 13.4315L3.74794 15.6815C4.54194 16.587 4.58894 17.7045 4.63444 18.786C4.66894 19.604 4.70444 20.45 5.07694 21.163C5.62744 22.216 6.91794 22.901 8.36544 22.9075H8.38644C9.90394 22.9075 11.2054 22.1655 11.8704 20.919C12.5274 19.6885 12.4164 18.2105 12.3179 16.9065C12.2539 16.0545 12.1934 15.249 12.3534 14.6535L12.3959 14.4945C12.6214 14.529 12.8469 14.551 13.0719 14.551C13.7005 14.5487 14.3215 14.4132 14.8939 14.1535L15.0019 13.5L14.4904 13.246Z" fill="#31373D"/>
<path d="M0.629487 14.4369C0.2796 14.038 0.102474 13.5166 0.137075 12.9872C0.171675 12.4577 0.415168 11.9637 0.813987 11.6139C1.21281 11.264 1.73428 11.0868 2.2637 11.1214C2.79311 11.1561 3.2871 11.3995 3.63699 11.7984C3.98687 12.1972 4.164 12.7187 4.1294 13.2481C4.0948 13.7775 3.85131 14.2715 3.45249 14.6214C3.25501 14.7946 3.02535 14.9273 2.77661 15.0118C2.52786 15.0962 2.26492 15.1309 2.00278 15.1138C1.47336 15.0792 0.979374 14.8357 0.629487 14.4369Z" fill="#2D9CDB"/>
<path d="M1.38318 13.7729C1.2925 13.6749 1.22237 13.5597 1.17691 13.4342C1.13146 13.3086 1.11161 13.1752 1.11853 13.0419C1.12546 12.9086 1.15901 12.778 1.21722 12.6578C1.27543 12.5376 1.35712 12.4303 1.45746 12.3422C1.5578 12.2542 1.67477 12.1871 1.80146 12.1449C1.92816 12.1027 2.06201 12.0864 2.19512 12.0968C2.32824 12.1072 2.45792 12.1442 2.57653 12.2055C2.69513 12.2668 2.80025 12.3513 2.88568 12.4539C3.05249 12.6542 3.13446 12.9118 3.11415 13.1717C3.09383 13.4316 2.97282 13.6733 2.77691 13.8453C2.581 14.0172 2.32568 14.1059 2.06534 14.0924C1.805 14.0789 1.56023 13.9642 1.38318 13.7729Z" fill="#31373D"/>
<path d="M14.8952 14.1605L14.4882 13.2475C14.9643 13.0361 15.3871 12.7207 15.7255 12.3245C16.0639 11.9283 16.3093 11.4614 16.4437 10.958L16.8327 9.50954C16.901 9.25336 16.865 8.98053 16.7326 8.75083C16.6002 8.52113 16.3821 8.35327 16.1262 8.28404L16.3862 7.31804C16.8981 7.45627 17.3343 7.79188 17.599 8.25126C17.8638 8.71065 17.9356 9.2563 17.7987 9.76854L17.4097 11.217C17.2367 11.8642 16.921 12.4644 16.486 12.9737C16.0509 13.483 15.5073 13.8885 14.8952 14.1605ZM9.39217 12.6535C9.00881 12.1135 8.74951 11.4955 8.63283 10.8435C8.51614 10.1916 8.54494 9.52201 8.71717 8.88254L9.10617 7.43404C9.24418 6.92208 9.57965 6.48579 10.039 6.22089C10.4983 5.95598 11.0439 5.88411 11.5562 6.02104L11.2967 6.98704C11.0405 6.9183 10.7676 6.95411 10.5379 7.0866C10.3081 7.2191 10.1404 7.43741 10.0717 7.69354L9.68267 9.14254C9.54828 9.63998 9.5257 10.161 9.61656 10.6682C9.70741 11.1754 9.90946 11.6562 10.2082 12.076L9.39217 12.6535Z" fill="#2D9CDB"/>
<path d="M11.2818 8.01865C11.0897 7.967 10.926 7.84115 10.8267 7.66881C10.7274 7.49647 10.7006 7.29174 10.7523 7.09965L11.1413 5.65115C11.1942 5.46045 11.3203 5.29838 11.4921 5.20025C11.664 5.10213 11.8677 5.0759 12.0588 5.12729C12.2499 5.17868 12.4129 5.30352 12.5124 5.4746C12.6119 5.64569 12.6397 5.84915 12.5898 6.04065L12.2008 7.48915C12.1491 7.68123 12.0233 7.84493 11.8509 7.94423C11.6786 8.04352 11.4739 8.0703 11.2818 8.01865ZM15.6278 9.18615C15.4357 9.1345 15.272 9.00865 15.1727 8.83631C15.0734 8.66397 15.0466 8.45924 15.0983 8.26715L15.4873 6.81865C15.5389 6.6265 15.6648 6.46274 15.8372 6.36339C16.0096 6.26405 16.2144 6.23725 16.4065 6.2889C16.5987 6.34055 16.7624 6.46642 16.8618 6.63881C16.9611 6.81121 16.9879 7.016 16.9363 7.20815L16.5473 8.65665C16.5217 8.75181 16.4776 8.841 16.4176 8.91913C16.3575 8.99725 16.2826 9.06276 16.1973 9.11194C16.1119 9.16111 16.0176 9.19298 15.9199 9.20571C15.8222 9.21844 15.7229 9.2118 15.6278 9.18615Z" fill="#31373D"/>
<path d="M149.598 33.644V49H146.518V33.644H149.598Z" fill="#27AE60"/>
<defs>
<filter id="filter0_d_2237_203" x="10.9766" y="0.84375" width="130.57" height="34.2969" filterUnits="userSpaceOnUse" color-interpolation-filters="sRGB">
<feFlood flood-opacity="0" result="BackgroundImageFix"/>
<feColorMatrix in="SourceAlpha" type="matrix" values="0 0 0 0 0 0 0 0 0 0 0 0 0 0 0 0 0 0 127 0" result="hardAlpha"/>
<feOffset dy="2"/>
<feGaussianBlur stdDeviation="5"/>
<feComposite in2="hardAlpha" operator="out"/>
<feColorMatrix type="matrix" values="0 0 0 0 0 0 0 0 0 0 0 0 0 0 0 0 0 0 0.25 0"/>
<feBlend mode="normal" in2="BackgroundImageFix" result="effect1_dropShadow_2237_203"/>
<feBlend mode="normal" in="SourceGraphic" in2="effect1_dropShadow_2237_203" result="shape"/>
</filter>
</defs>
</svg>